<svg xmlns="http://www.w3.org/2000/svg" viewBox="0 0 500 96" width="500" height="96" role="img" aria-label="now playing: vida simples — tokio dk">
  <defs>
    <style>
      .label { font: 500 11px -apple-system, BlinkMacSystemFont, "Segoe UI", system-ui, sans-serif; fill: #686b6f; letter-spacing: 0.6px; text-transform: uppercase; }
      .title { font: 600 16px -apple-system, BlinkMacSystemFont, "Segoe UI", system-ui, sans-serif; fill: #c9d1d9; }
      .meta  { font: 400 11px -apple-system, BlinkMacSystemFont, "Segoe UI", system-ui, sans-serif; fill: #686b6f; }
      .bar-bg { fill: #21262d; }
      .bar-fg { fill: #c9d1d9; }
    </style>
  </defs>

  <rect width="500" height="96" rx="10" fill="#16191c" />

  <!-- spotify mark -->
  <g transform="translate(20,28)">
    <circle cx="20" cy="20" r="20" fill="#1db954" />
    <path d="M30.4 18.8c-5.3-3.1-13.9-3.4-18.9-1.9-.8.2-1.7-.2-2-1-.2-.8.2-1.7 1-2 5.7-1.7 15.3-1.4 21.4 2.2.7.4.9 1.4.5 2.1-.4.7-1.3.9-2 .6zm-.2 4.6c-.4.6-1.1.8-1.7.4-4.4-2.7-11.1-3.5-16.3-1.9-.7.2-1.4-.2-1.6-.9-.2-.7.2-1.4.9-1.6 5.9-1.8 13.3-.9 18.4 2.2.6.4.7 1.2.3 1.8zm-2 4.4c-.3.5-.9.6-1.4.3-3.8-2.3-8.6-2.8-14.2-1.5-.5.1-1.1-.2-1.2-.8-.1-.5.2-1.1.8-1.2 6.1-1.4 11.4-.8 15.7 1.8.5.3.6.9.3 1.4z" fill="#16191c" />
  </g>

  <!-- text block -->
  <text class="label" x="76" y="28">now playing</text>
  <text class="title" x="76" y="50">vida simples — tokio dk</text>

  <!-- progress bar -->
  <rect class="bar-bg" x="76" y="62" width="404" height="3" rx="1.5" />
  <rect class="bar-fg" x="76" y="62" width="148" height="3" rx="1.5">
    <animate attributeName="width" values="0;404" dur="220s" repeatCount="indefinite" />
  </rect>

  <text class="meta" x="76" y="82">1:23</text>
  <text class="meta" x="464" y="82" text-anchor="end">3:42</text>
</svg>
